<svg xmlns="http://www.w3.org/2000/svg" width="128" height="128" viewBox="0 0 128 128" role="img" aria-labelledby="title">
  <title id="title">CivicPath mark</title>
  <rect width="128" height="128" rx="24" fill="#f7f5ef"/>
  <path d="M29 31h70a6 6 0 0 1 6 6v54a6 6 0 0 1-6 6H29a6 6 0 0 1-6-6V37a6 6 0 0 1 6-6Z" fill="#ffffff" stroke="#252525" stroke-width="4"/>
  <path d="M42 62.5 56.5 77 88 45.5" fill="none" stroke="#0f8f7f" stroke-width="8" stroke-linecap="round" stroke-linejoin="round"/>
  <path d="M35 98c8.5-15.5 22.5-22.5 42-21 11.8.9 20.2-2.2 25-9.5" fill="none" stroke="#e56b4f" stroke-width="5" stroke-linecap="round"/>
  <circle cx="97" cy="68" r="7" fill="#f2bc42" stroke="#252525" stroke-width="3"/>
</svg>
